<mxfile host="Electron" modified="2024-07-23T16:44:26.562Z" agent="Mozilla/5.0 (Windows NT 10.0; Win64; x64) AppleWebKit/537.36 (KHTML, like Gecko) draw.io/24.6.4 Chrome/124.0.6367.207 Electron/30.0.6 Safari/537.36" etag="ZBgO2hKUYrUKBvOF1YXt" version="24.6.4" type="device" pages="2">
  <diagram name="components" id="UqE3l8Gb1wlmfDLM-eLu">
    <mxGraphModel dx="819" dy="574" grid="1" gridSize="10" guides="1" tooltips="1" connect="1" arrows="1" fold="1" page="1" pageScale="1" pageWidth="850" pageHeight="1100" math="0" shadow="0">
      <root>
        <mxCell id="0" />
        <mxCell id="1" parent="0" />
        <mxCell id="BgGJd57Msp2i7gKfFqmu-1" style="edgeStyle=orthogonalEdgeStyle;rounded=0;orthogonalLoop=1;jettySize=auto;html=1;exitX=0.5;exitY=1;exitDx=0;exitDy=0;fontSize=13;" parent="1" source="BgGJd57Msp2i7gKfFqmu-2" target="BgGJd57Msp2i7gKfFqmu-5" edge="1">
          <mxGeometry relative="1" as="geometry" />
        </mxCell>
        <mxCell id="42RFXaxDwG3sjtWnwRdo-4" style="edgeStyle=orthogonalEdgeStyle;rounded=0;orthogonalLoop=1;jettySize=auto;html=1;exitX=0.5;exitY=1;exitDx=0;exitDy=0;entryX=0.5;entryY=0;entryDx=0;entryDy=0;" parent="1" source="BgGJd57Msp2i7gKfFqmu-2" target="42RFXaxDwG3sjtWnwRdo-1" edge="1">
          <mxGeometry relative="1" as="geometry" />
        </mxCell>
        <mxCell id="BgGJd57Msp2i7gKfFqmu-2" value="App" style="rounded=0;whiteSpace=wrap;html=1;strokeWidth=1;fontSize=13;align=center;fillColor=#f5f5f5;strokeColor=#666666;fontColor=#333333;" parent="1" vertex="1">
          <mxGeometry x="410" y="200" width="80" height="20" as="geometry" />
        </mxCell>
        <mxCell id="42RFXaxDwG3sjtWnwRdo-5" style="edgeStyle=orthogonalEdgeStyle;rounded=0;orthogonalLoop=1;jettySize=auto;html=1;exitX=0.5;exitY=1;exitDx=0;exitDy=0;entryX=0.5;entryY=0;entryDx=0;entryDy=0;" parent="1" source="BgGJd57Msp2i7gKfFqmu-5" target="BgGJd57Msp2i7gKfFqmu-7" edge="1">
          <mxGeometry relative="1" as="geometry" />
        </mxCell>
        <mxCell id="BgGJd57Msp2i7gKfFqmu-5" value="TimerInput" style="rounded=0;whiteSpace=wrap;html=1;strokeWidth=1;fontSize=13;align=center;fillColor=#f5f5f5;strokeColor=#666666;fontColor=#333333;" parent="1" vertex="1">
          <mxGeometry x="189.06" y="270" width="80" height="20" as="geometry" />
        </mxCell>
        <mxCell id="BgGJd57Msp2i7gKfFqmu-7" value="CustomButton&lt;div&gt;(Set Time)&lt;/div&gt;" style="rounded=0;whiteSpace=wrap;html=1;strokeWidth=1;fontSize=11;align=center;fillColor=#f5f5f5;strokeColor=#666666;fontColor=#333333;" parent="1" vertex="1">
          <mxGeometry x="180" y="340" width="98.12" height="50" as="geometry" />
        </mxCell>
        <mxCell id="42RFXaxDwG3sjtWnwRdo-7" value="" style="edgeStyle=orthogonalEdgeStyle;rounded=0;orthogonalLoop=1;jettySize=auto;html=1;" parent="1" source="42RFXaxDwG3sjtWnwRdo-1" target="42RFXaxDwG3sjtWnwRdo-6" edge="1">
          <mxGeometry relative="1" as="geometry" />
        </mxCell>
        <mxCell id="42RFXaxDwG3sjtWnwRdo-1" value="Display" style="rounded=0;whiteSpace=wrap;html=1;strokeWidth=1;fontSize=13;align=center;fillColor=#f5f5f5;strokeColor=#666666;fontColor=#333333;" parent="1" vertex="1">
          <mxGeometry x="410" y="270" width="80" height="20" as="geometry" />
        </mxCell>
        <mxCell id="42RFXaxDwG3sjtWnwRdo-10" style="edgeStyle=orthogonalEdgeStyle;rounded=0;orthogonalLoop=1;jettySize=auto;html=1;exitX=0.5;exitY=1;exitDx=0;exitDy=0;entryX=0.5;entryY=0;entryDx=0;entryDy=0;" parent="1" source="42RFXaxDwG3sjtWnwRdo-2" target="42RFXaxDwG3sjtWnwRdo-8" edge="1">
          <mxGeometry relative="1" as="geometry" />
        </mxCell>
        <mxCell id="42RFXaxDwG3sjtWnwRdo-11" style="edgeStyle=orthogonalEdgeStyle;rounded=0;orthogonalLoop=1;jettySize=auto;html=1;exitX=0.5;exitY=1;exitDx=0;exitDy=0;entryX=0.5;entryY=0;entryDx=0;entryDy=0;" parent="1" source="42RFXaxDwG3sjtWnwRdo-2" target="42RFXaxDwG3sjtWnwRdo-9" edge="1">
          <mxGeometry relative="1" as="geometry" />
        </mxCell>
        <mxCell id="42RFXaxDwG3sjtWnwRdo-2" value="ControlPanel" style="rounded=0;whiteSpace=wrap;html=1;strokeWidth=1;fontSize=13;align=center;fillColor=#f5f5f5;strokeColor=#666666;fontColor=#333333;" parent="1" vertex="1">
          <mxGeometry x="670" y="270" width="90" height="20" as="geometry" />
        </mxCell>
        <mxCell id="42RFXaxDwG3sjtWnwRdo-3" style="edgeStyle=orthogonalEdgeStyle;rounded=0;orthogonalLoop=1;jettySize=auto;html=1;exitX=0.5;exitY=1;exitDx=0;exitDy=0;entryX=0.52;entryY=0.023;entryDx=0;entryDy=0;entryPerimeter=0;" parent="1" source="BgGJd57Msp2i7gKfFqmu-2" target="42RFXaxDwG3sjtWnwRdo-2" edge="1">
          <mxGeometry relative="1" as="geometry" />
        </mxCell>
        <mxCell id="42RFXaxDwG3sjtWnwRdo-6" value="CircularProgress" style="rounded=0;whiteSpace=wrap;html=1;strokeWidth=1;fontSize=13;align=center;fillColor=#f5f5f5;strokeColor=#666666;fontColor=#333333;" parent="1" vertex="1">
          <mxGeometry x="395" y="340" width="110" height="20" as="geometry" />
        </mxCell>
        <mxCell id="42RFXaxDwG3sjtWnwRdo-8" value="CustomButton&lt;div&gt;(Start/Pause)&lt;/div&gt;" style="rounded=0;whiteSpace=wrap;html=1;strokeWidth=1;fontSize=11;align=center;fillColor=#f5f5f5;strokeColor=#666666;fontColor=#333333;" parent="1" vertex="1">
          <mxGeometry x="580" y="345" width="100" height="45" as="geometry" />
        </mxCell>
        <mxCell id="42RFXaxDwG3sjtWnwRdo-9" value="CustomButton&lt;div&gt;(Reset)&lt;/div&gt;" style="rounded=0;whiteSpace=wrap;html=1;strokeWidth=1;fontSize=11;align=center;fillColor=#f5f5f5;strokeColor=#666666;fontColor=#333333;" parent="1" vertex="1">
          <mxGeometry x="760" y="345" width="110" height="45" as="geometry" />
        </mxCell>
      </root>
    </mxGraphModel>
  </diagram>
  <diagram id="hqomnjxntXS2wZaaCSPL" name="state">
    <mxGraphModel dx="819" dy="546" grid="1" gridSize="10" guides="1" tooltips="1" connect="1" arrows="1" fold="1" page="1" pageScale="1" pageWidth="850" pageHeight="1100" math="0" shadow="0">
      <root>
        <mxCell id="0" />
        <mxCell id="1" parent="0" />
        <mxCell id="EQVxBTENJ_AFrsgOhq2U-19" value="stopwatchReducer" style="rounded=0;whiteSpace=wrap;html=1;strokeWidth=1;fontSize=13;align=center;fillColor=#f5f5f5;strokeColor=#666666;fontColor=#333333;fontStyle=1" vertex="1" parent="1">
          <mxGeometry x="525" y="363" width="130" height="30" as="geometry" />
        </mxCell>
        <mxCell id="EQVxBTENJ_AFrsgOhq2U-20" value="" style="rounded=0;whiteSpace=wrap;html=1;strokeWidth=1;fontSize=13;align=center;fillColor=#f5f5f5;strokeColor=#666666;fontColor=#333333;" vertex="1" parent="1">
          <mxGeometry x="525" y="393" width="130" height="197" as="geometry" />
        </mxCell>
        <mxCell id="EQVxBTENJ_AFrsgOhq2U-21" value="State" style="rounded=0;whiteSpace=wrap;html=1;strokeWidth=1;fontSize=11;align=center;fillColor=#dae8fc;strokeColor=#6c8ebf;" vertex="1" parent="1">
          <mxGeometry x="530" y="420" width="120" height="20" as="geometry" />
        </mxCell>
        <mxCell id="EQVxBTENJ_AFrsgOhq2U-24" style="edgeStyle=orthogonalEdgeStyle;rounded=0;orthogonalLoop=1;jettySize=auto;html=1;exitX=1;exitY=0.5;exitDx=0;exitDy=0;fontSize=14;" edge="1" parent="1" source="EQVxBTENJ_AFrsgOhq2U-25" target="EQVxBTENJ_AFrsgOhq2U-27">
          <mxGeometry relative="1" as="geometry" />
        </mxCell>
        <mxCell id="EQVxBTENJ_AFrsgOhq2U-25" value="Application Level State" style="rounded=0;whiteSpace=wrap;html=1;strokeWidth=1;fontSize=14;align=center;fillColor=#dae8fc;strokeColor=#6c8ebf;fontStyle=1" vertex="1" parent="1">
          <mxGeometry x="170" y="390" width="90" height="60" as="geometry" />
        </mxCell>
        <mxCell id="EQVxBTENJ_AFrsgOhq2U-26" value="Component Level State" style="rounded=0;whiteSpace=wrap;html=1;strokeWidth=1;fontSize=14;align=center;fillColor=#fff2cc;strokeColor=#d6b656;fontStyle=1" vertex="1" parent="1">
          <mxGeometry x="170" y="470" width="90" height="60" as="geometry" />
        </mxCell>
        <mxCell id="EQVxBTENJ_AFrsgOhq2U-27" value="State that &lt;b style=&quot;font-size: 12px;&quot;&gt;many&lt;/b&gt; components will care about. &lt;br style=&quot;font-size: 12px;&quot;&gt;Best stored in Redux" style="rounded=0;whiteSpace=wrap;html=1;strokeWidth=1;fontSize=12;align=center;fillColor=#f5f5f5;strokeColor=#666666;fontColor=#333333;" vertex="1" parent="1">
          <mxGeometry x="280" y="390" width="210" height="60" as="geometry" />
        </mxCell>
        <mxCell id="EQVxBTENJ_AFrsgOhq2U-28" style="edgeStyle=orthogonalEdgeStyle;rounded=0;orthogonalLoop=1;jettySize=auto;html=1;exitX=1;exitY=0.5;exitDx=0;exitDy=0;fontSize=14;" edge="1" parent="1" target="EQVxBTENJ_AFrsgOhq2U-29">
          <mxGeometry relative="1" as="geometry">
            <mxPoint x="260" y="500" as="sourcePoint" />
          </mxGeometry>
        </mxCell>
        <mxCell id="EQVxBTENJ_AFrsgOhq2U-29" value="State that &lt;b style=&quot;font-size: 12px;&quot;&gt;only one&lt;/b&gt; component will care about.&lt;br style=&quot;font-size: 12px;&quot;&gt;Best stored in a component" style="rounded=0;whiteSpace=wrap;html=1;strokeWidth=1;fontSize=12;align=center;fillColor=#f5f5f5;strokeColor=#666666;fontColor=#333333;" vertex="1" parent="1">
          <mxGeometry x="280" y="470" width="210" height="60" as="geometry" />
        </mxCell>
        <mxCell id="03EUx8_9RQE1zDJkGxtR-1" style="edgeStyle=orthogonalEdgeStyle;rounded=0;orthogonalLoop=1;jettySize=auto;html=1;exitX=0.5;exitY=1;exitDx=0;exitDy=0;fontSize=13;" edge="1" parent="1" source="03EUx8_9RQE1zDJkGxtR-3" target="03EUx8_9RQE1zDJkGxtR-5">
          <mxGeometry relative="1" as="geometry" />
        </mxCell>
        <mxCell id="03EUx8_9RQE1zDJkGxtR-2" style="edgeStyle=orthogonalEdgeStyle;rounded=0;orthogonalLoop=1;jettySize=auto;html=1;exitX=0.5;exitY=1;exitDx=0;exitDy=0;entryX=0.5;entryY=0;entryDx=0;entryDy=0;" edge="1" parent="1" source="03EUx8_9RQE1zDJkGxtR-3" target="03EUx8_9RQE1zDJkGxtR-8">
          <mxGeometry relative="1" as="geometry" />
        </mxCell>
        <mxCell id="03EUx8_9RQE1zDJkGxtR-3" value="App" style="rounded=0;whiteSpace=wrap;html=1;strokeWidth=1;fontSize=13;align=center;fillColor=#fff2cc;strokeColor=#d6b656;" vertex="1" parent="1">
          <mxGeometry x="358.75" y="630" width="80" height="20" as="geometry" />
        </mxCell>
        <mxCell id="03EUx8_9RQE1zDJkGxtR-4" style="edgeStyle=orthogonalEdgeStyle;rounded=0;orthogonalLoop=1;jettySize=auto;html=1;exitX=0.5;exitY=1;exitDx=0;exitDy=0;entryX=0.5;entryY=0;entryDx=0;entryDy=0;" edge="1" parent="1" source="03EUx8_9RQE1zDJkGxtR-5" target="03EUx8_9RQE1zDJkGxtR-6">
          <mxGeometry relative="1" as="geometry" />
        </mxCell>
        <mxCell id="03EUx8_9RQE1zDJkGxtR-5" value="TimerInput" style="rounded=0;whiteSpace=wrap;html=1;strokeWidth=1;fontSize=13;align=center;fillColor=#f5f5f5;strokeColor=#666666;fontColor=#333333;" vertex="1" parent="1">
          <mxGeometry x="218.75" y="720" width="80" height="20" as="geometry" />
        </mxCell>
        <mxCell id="03EUx8_9RQE1zDJkGxtR-6" value="CustomButton" style="rounded=0;whiteSpace=wrap;html=1;strokeWidth=1;fontSize=11;align=center;fillColor=#f5f5f5;strokeColor=#666666;fontColor=#333333;" vertex="1" parent="1">
          <mxGeometry x="220.62" y="790" width="76.25" height="20" as="geometry" />
        </mxCell>
        <mxCell id="03EUx8_9RQE1zDJkGxtR-7" value="" style="edgeStyle=orthogonalEdgeStyle;rounded=0;orthogonalLoop=1;jettySize=auto;html=1;" edge="1" parent="1" source="03EUx8_9RQE1zDJkGxtR-8" target="03EUx8_9RQE1zDJkGxtR-13">
          <mxGeometry relative="1" as="geometry" />
        </mxCell>
        <mxCell id="03EUx8_9RQE1zDJkGxtR-8" value="Display" style="rounded=0;whiteSpace=wrap;html=1;strokeWidth=1;fontSize=13;align=center;fillColor=#f5f5f5;strokeColor=#666666;fontColor=#333333;" vertex="1" parent="1">
          <mxGeometry x="358.75" y="720" width="80" height="20" as="geometry" />
        </mxCell>
        <mxCell id="03EUx8_9RQE1zDJkGxtR-9" style="edgeStyle=orthogonalEdgeStyle;rounded=0;orthogonalLoop=1;jettySize=auto;html=1;exitX=0.5;exitY=1;exitDx=0;exitDy=0;entryX=0.5;entryY=0;entryDx=0;entryDy=0;" edge="1" parent="1" source="03EUx8_9RQE1zDJkGxtR-11" target="03EUx8_9RQE1zDJkGxtR-14">
          <mxGeometry relative="1" as="geometry" />
        </mxCell>
        <mxCell id="03EUx8_9RQE1zDJkGxtR-10" style="edgeStyle=orthogonalEdgeStyle;rounded=0;orthogonalLoop=1;jettySize=auto;html=1;exitX=0.5;exitY=1;exitDx=0;exitDy=0;entryX=0.5;entryY=0;entryDx=0;entryDy=0;" edge="1" parent="1" source="03EUx8_9RQE1zDJkGxtR-11" target="03EUx8_9RQE1zDJkGxtR-15">
          <mxGeometry relative="1" as="geometry" />
        </mxCell>
        <mxCell id="03EUx8_9RQE1zDJkGxtR-11" value="ControlPanel" style="rounded=0;whiteSpace=wrap;html=1;strokeWidth=1;fontSize=13;align=center;fillColor=#f5f5f5;strokeColor=#666666;fontColor=#333333;" vertex="1" parent="1">
          <mxGeometry x="518.75" y="720" width="90" height="20" as="geometry" />
        </mxCell>
        <mxCell id="03EUx8_9RQE1zDJkGxtR-12" style="edgeStyle=orthogonalEdgeStyle;rounded=0;orthogonalLoop=1;jettySize=auto;html=1;exitX=0.5;exitY=1;exitDx=0;exitDy=0;entryX=0.52;entryY=0.023;entryDx=0;entryDy=0;entryPerimeter=0;" edge="1" parent="1" source="03EUx8_9RQE1zDJkGxtR-3" target="03EUx8_9RQE1zDJkGxtR-11">
          <mxGeometry relative="1" as="geometry" />
        </mxCell>
        <mxCell id="03EUx8_9RQE1zDJkGxtR-13" value="CircularProgress" style="rounded=0;whiteSpace=wrap;html=1;strokeWidth=1;fontSize=13;align=center;fillColor=#f5f5f5;strokeColor=#666666;fontColor=#333333;" vertex="1" parent="1">
          <mxGeometry x="343.75" y="790" width="110" height="20" as="geometry" />
        </mxCell>
        <mxCell id="03EUx8_9RQE1zDJkGxtR-22" value="" style="edgeStyle=orthogonalEdgeStyle;rounded=0;orthogonalLoop=1;jettySize=auto;html=1;" edge="1" parent="1" source="03EUx8_9RQE1zDJkGxtR-14" target="03EUx8_9RQE1zDJkGxtR-21">
          <mxGeometry relative="1" as="geometry" />
        </mxCell>
        <mxCell id="03EUx8_9RQE1zDJkGxtR-14" value="CustomButton" style="rounded=0;whiteSpace=wrap;html=1;strokeWidth=1;fontSize=11;align=center;fillColor=#f5f5f5;strokeColor=#666666;fontColor=#333333;" vertex="1" parent="1">
          <mxGeometry x="478.75" y="790" width="76.25" height="20" as="geometry" />
        </mxCell>
        <mxCell id="03EUx8_9RQE1zDJkGxtR-24" value="" style="edgeStyle=orthogonalEdgeStyle;rounded=0;orthogonalLoop=1;jettySize=auto;html=1;" edge="1" parent="1" source="03EUx8_9RQE1zDJkGxtR-15" target="03EUx8_9RQE1zDJkGxtR-23">
          <mxGeometry relative="1" as="geometry" />
        </mxCell>
        <mxCell id="03EUx8_9RQE1zDJkGxtR-15" value="CustomButton" style="rounded=0;whiteSpace=wrap;html=1;strokeWidth=1;fontSize=11;align=center;fillColor=#f5f5f5;strokeColor=#666666;fontColor=#333333;" vertex="1" parent="1">
          <mxGeometry x="578.75" y="790" width="76.25" height="20" as="geometry" />
        </mxCell>
        <mxCell id="03EUx8_9RQE1zDJkGxtR-19" value="&lt;div style=&quot;font-size: 9px; color: rgb(212, 212, 212); font-family: &amp;quot;Fira Code&amp;quot;, Consolas, &amp;quot;Courier New&amp;quot;, monospace; text-align: left; white-space: pre;&quot;&gt;&lt;span style=&quot;color: rgb(156, 220, 254); font-size: 9px;&quot;&gt; targetMilliseconds&lt;/span&gt;&lt;span style=&quot;color: rgb(156, 220, 254); font-size: 9px;&quot;&gt;:&lt;/span&gt; &lt;span style=&quot;color: rgb(181, 206, 168); font-size: 9px;&quot;&gt;0&lt;/span&gt;,&lt;/div&gt;&lt;div style=&quot;font-size: 9px; color: rgb(212, 212, 212); font-family: &amp;quot;Fira Code&amp;quot;, Consolas, &amp;quot;Courier New&amp;quot;, monospace; text-align: left; white-space: pre;&quot;&gt; &lt;span style=&quot;color: rgb(156, 220, 254); font-size: 9px;&quot;&gt;milliseconds&lt;/span&gt;&lt;span style=&quot;color: rgb(156, 220, 254); font-size: 9px;&quot;&gt;:&lt;/span&gt; &lt;span style=&quot;color: rgb(181, 206, 168); font-size: 9px;&quot;&gt;0&lt;/span&gt;,&lt;/div&gt;&lt;div style=&quot;font-size: 9px; color: rgb(212, 212, 212); font-family: &amp;quot;Fira Code&amp;quot;, Consolas, &amp;quot;Courier New&amp;quot;, monospace; text-align: left; white-space: pre;&quot;&gt;&amp;nbsp;&lt;span style=&quot;color: rgb(156, 220, 254); font-size: 9px;&quot;&gt;isActive&lt;/span&gt;&lt;span style=&quot;color: rgb(156, 220, 254); font-size: 9px;&quot;&gt;:&lt;/span&gt; &lt;span style=&quot;color: rgb(86, 156, 214); font-size: 9px;&quot;&gt;false&lt;/span&gt;,&lt;/div&gt;&lt;div style=&quot;font-size: 9px; color: rgb(212, 212, 212); font-family: &amp;quot;Fira Code&amp;quot;, Consolas, &amp;quot;Courier New&amp;quot;, monospace; text-align: left; white-space: pre;&quot;&gt;&amp;nbsp;&lt;span style=&quot;color: rgb(156, 220, 254); font-size: 9px;&quot;&gt;inputValue&lt;/span&gt;&lt;span style=&quot;color: rgb(156, 220, 254); font-size: 9px;&quot;&gt;:&lt;/span&gt; &lt;span style=&quot;color: rgb(206, 145, 120); font-size: 9px;&quot;&gt;&quot;0&quot;&lt;/span&gt;,&lt;br style=&quot;font-size: 9px;&quot;&gt;&lt;/div&gt;&lt;div style=&quot;font-size: 9px; color: rgb(212, 212, 212); font-family: &amp;quot;Fira Code&amp;quot;, Consolas, &amp;quot;Courier New&amp;quot;, monospace; text-align: left; white-space: pre;&quot;&gt;&amp;nbsp;&lt;span style=&quot;color: rgb(156, 220, 254); font-size: 9px;&quot;&gt;isStartable&lt;/span&gt;&lt;span style=&quot;color: rgb(156, 220, 254); font-size: 9px;&quot;&gt;:&lt;/span&gt; &lt;span style=&quot;color: rgb(86, 156, 214); font-size: 9px;&quot;&gt;false&lt;/span&gt;,&lt;br style=&quot;font-size: 9px;&quot;&gt;&lt;/div&gt;&lt;div style=&quot;font-size: 9px; color: rgb(212, 212, 212); font-family: &amp;quot;Fira Code&amp;quot;, Consolas, &amp;quot;Courier New&amp;quot;, monospace; text-align: left; white-space: pre;&quot;&gt;&amp;nbsp;&lt;span style=&quot;color: rgb(156, 220, 254); font-size: 9px;&quot;&gt;isSet&lt;/span&gt;&lt;span style=&quot;color: rgb(156, 220, 254); font-size: 9px;&quot;&gt;:&lt;/span&gt; &lt;span style=&quot;color: rgb(86, 156, 214); font-size: 9px;&quot;&gt;false&lt;/span&gt;&lt;/div&gt;" style="rounded=0;whiteSpace=wrap;html=1;strokeWidth=1;fontSize=9;align=center;fillColor=#000000;strokeColor=#6c8ebf;textShadow=1;" vertex="1" parent="1">
          <mxGeometry x="530" y="440" width="120" height="110" as="geometry" />
        </mxCell>
        <mxCell id="03EUx8_9RQE1zDJkGxtR-21" value="pause/start" style="rounded=0;whiteSpace=wrap;html=1;strokeWidth=1;fontSize=11;align=center;fillColor=#f8cecc;strokeColor=#b85450;" vertex="1" parent="1">
          <mxGeometry x="478.75" y="840" width="76.25" height="20" as="geometry" />
        </mxCell>
        <mxCell id="03EUx8_9RQE1zDJkGxtR-23" value="reset" style="rounded=0;whiteSpace=wrap;html=1;strokeWidth=1;fontSize=11;align=center;fillColor=#f8cecc;strokeColor=#b85450;" vertex="1" parent="1">
          <mxGeometry x="578.75" y="840" width="76.25" height="20" as="geometry" />
        </mxCell>
        <mxCell id="03EUx8_9RQE1zDJkGxtR-25" value="set time" style="rounded=0;whiteSpace=wrap;html=1;strokeWidth=1;fontSize=11;align=center;fillColor=#f8cecc;strokeColor=#b85450;" vertex="1" parent="1">
          <mxGeometry x="220" y="840" width="76.25" height="20" as="geometry" />
        </mxCell>
      </root>
    </mxGraphModel>
  </diagram>
</mxfile>
